<svg xmlns="http://www.w3.org/2000/svg" width="140" height="14.001"><path d="M8.486 1.723H1.66v4.015h6.06v1.446H1.66v6.54H0V.277h8.486v1.447zM19.24 13.725l-1.384-3.837h-5.835l-1.384 3.837H8.95L13.93.276h2.115l4.97 13.449H19.24zm-1.884-5.221l-2.418-6.63-2.41 6.63h4.828zm24.091 5.221h-8.754V.276h8.754v1.447h-7.093V5.64h6.915v1.445h-6.915v5.194h7.093v1.446zM54.11.276l-4.667 6.649 4.658 6.8h-1.936l-3.73-5.631-3.829 5.63h-1.811l4.712-6.72L42.902.277h1.927l3.686 5.56 3.774-5.56h1.821zm12.386 13.449h-1.66V7.076h-6.96v6.649h-1.66V.276h1.66V5.64h6.96V.276h1.66v13.449zm7.924 0h-5.185v-1.24h1.767V1.516h-1.767V.277h5.185v1.24h-1.758v10.967h1.758v1.24zm2.749 0V.276h3.962c.606 0 1.123.012 1.548.036.425.024.863.101 1.312.232.448.13.834.329 1.155.594s.56.575.714.932c.155.357.233.765.233 1.223 0 1.19-.602 2.105-1.803 2.748v.071c.91.19 1.621.591 2.133 1.2.512.61.766 1.368.766 2.272 0 1.28-.459 2.289-1.377 3.03-.92.74-2.23 1.11-3.932 1.11h-4.711zm1.66-12.038v4.086h2.4c1.16 0 1.972-.187 2.436-.562.464-.374.696-.951.696-1.73 0-.543-.184-.976-.553-1.303-.369-.327-1.297-.491-2.785-.491h-2.195zm0 5.46v5.167h2.418c1.707 0 2.836-.236 3.386-.709.55-.473.826-1.11.826-1.914 0-.523-.102-.971-.304-1.343-.202-.371-.518-.664-.95-.88-.432-.213-1.268-.32-2.512-.32h-2.865zm15.259 6.578h-5.185v-1.24h1.767V1.516h-1.767V.277h5.185v1.24H92.33v10.967h1.758v1.24zm6.077 0V1.723h-4.774V.276h11.208v1.447h-4.775v12.002h-1.659zm12.912 0h-5.184v-1.24h1.766V1.516h-1.766V.277h5.184v1.24h-1.758v10.967h1.758v1.24zm8.059.276c-1.91 0-3.41-.617-4.498-1.852s-1.633-2.949-1.633-5.144c0-2.19.546-3.904 1.638-5.145S119.23 0 121.136 0c1.909 0 3.41.62 4.502 1.86s1.636 2.955 1.636 5.145c0 2.183-.545 3.895-1.636 5.136S123.045 14 121.136 14zm.009-12.582c-1.393 0-2.475.487-3.249 1.464-.773.975-1.16 2.35-1.16 4.122 0 1.773.387 3.145 1.16 4.118s1.856 1.459 3.249 1.459c1.385 0 2.465-.486 3.239-1.459s1.16-2.345 1.16-4.118c0-1.784-.387-3.162-1.16-4.132s-1.854-1.454-3.24-1.454zM140 13.725h-1.928L131.3 2.053v11.672h-1.544V.276h2.302l6.398 11.03V.277H140v13.449z" fill="#fff"/></svg>